<svg xmlns="http://www.w3.org/2000/svg" viewBox="0 0 60 60"><defs><style>.cls-1{fill:#231f20;}.cls-2{fill:none;}</style></defs><title>Asset 105</title><g id="Layer_2" data-name="Layer 2"><g id="for_SVG" data-name="for SVG"><path class="cls-1" d="M30,3.38A26.62,26.62,0,1,0,56.62,30,26.65,26.65,0,0,0,30,3.38Zm0,50.4A23.78,23.78,0,1,1,53.78,30,23.81,23.81,0,0,1,30,53.78Zm0-45.2A21.42,21.42,0,1,0,51.42,30,21.45,21.45,0,0,0,30,8.58Zm0,40A18.58,18.58,0,1,1,48.58,30,18.59,18.59,0,0,1,30,48.58Zm0-28A9.42,9.42,0,1,0,39.42,30,9.44,9.44,0,0,0,30,20.58Zm0,16A6.58,6.58,0,1,1,36.58,30,6.59,6.59,0,0,1,30,36.58ZM31.67,30A1.67,1.67,0,1,1,30,28.33,1.67,1.67,0,0,1,31.67,30Z"/><rect class="cls-2" width="60" height="60"/></g></g></svg>