<svg xmlns="http://www.w3.org/2000/svg" viewBox="0 0 60 60"><defs><style>.cls-1{fill:#231f20;}.cls-2{fill:none;}</style></defs><title>Asset 106</title><g id="Layer_2" data-name="Layer 2"><g id="for_SVG" data-name="for SVG"><path class="cls-1" d="M30,8.58A21.42,21.42,0,1,0,51.42,30,21.45,21.45,0,0,0,30,8.58Zm0,40A18.58,18.58,0,1,1,48.58,30,18.59,18.59,0,0,1,30,48.58Zm0-45.2A26.62,26.62,0,1,0,56.62,30,26.65,26.65,0,0,0,30,3.38Zm0,50.4A23.78,23.78,0,1,1,53.78,30,23.81,23.81,0,0,1,30,53.78Zm1.42-34.53v6L41,34.8l-2,2-7.55-7.54V44.17H28.58V29.26L21,36.8l-2-2,9.55-9.55v-6L21,26.8l-2-2,11-11,11,11-2,2Z"/><rect class="cls-2" width="60" height="60"/></g></g></svg>