<svg xmlns="http://www.w3.org/2000/svg" viewBox="0 0 60 60"><defs><style>.cls-1{fill:#231f20;}.cls-2{fill:none;}</style></defs><title>אחורה</title><g id="Layer_2" data-name="Layer 2"><g id="for_SVG" data-name="for SVG"><path class="cls-1" d="M51.42,30.08A21.42,21.42,0,1,0,23.73,50.53a6.41,6.41,0,0,0,12.79-.08A21.43,21.43,0,0,0,51.42,30.08ZM30.13,53.65a3.59,3.59,0,1,1,3.58-3.59A3.59,3.59,0,0,1,30.13,53.65Zm5.93-6a6.45,6.45,0,0,0-4.52-3.81V30.08H28.71V43.81a6.42,6.42,0,0,0-4.54,3.89,18.58,18.58,0,1,1,11.89-.08Z"/><rect class="cls-2" width="60" height="60"/></g></g></svg>