<svg xmlns="http://www.w3.org/2000/svg" viewBox="0 0 60 60"><defs><style>.cls-1{fill:#231f20;}.cls-2{fill:none;}</style></defs><g id="Layer_2" data-name="Layer 2"><g id="for_SVG" data-name="for SVG"><path class="cls-1" d="M31.54,42.82H49.88v2.83H10.12V42.82H28.71v-5.6l-3.3,3.29-2-2,5.3-5.3V30.42l-3.3,3.29-2-2L30.12,25l6.72,6.72-2,2-3.3-3.29v2.79l5.3,5.3-2,2-3.3-3.29Zm-.11-32.69H28.57A18.61,18.61,0,0,1,10,28.71v2.83A21.43,21.43,0,0,0,30,17.68,21.43,21.43,0,0,0,50,31.54V28.71A18.61,18.61,0,0,1,31.43,10.13Z"/><rect class="cls-2" width="60" height="60"/></g></g></svg>