<svg xmlns="http://www.w3.org/2000/svg" viewBox="0 0 60 60.14"><defs><style>.cls-1{fill:#231f20;}.cls-2{fill:none;}</style></defs><title>לדבר.לתקשר</title><g id="Layer_2" data-name="Layer 2"><g id="for_SVG" data-name="for SVG"><path class="cls-1" d="M41,32.87l-9.55,9.55V60.14H28.58V42.42L19,32.87l2-2,9,9,9-9Zm-11-8a1.67,1.67,0,1,0,1.67,1.66A1.66,1.66,0,0,0,30,24.82Zm0,7a1.67,1.67,0,1,0,1.67,1.67A1.67,1.67,0,0,0,30,31.85Zm-9-3,9-9,9,9,2-2-9.55-9.55V.14H28.58V17.31L19,26.86Z"/><rect class="cls-2" width="60" height="60"/></g></g></svg>