<svg xmlns="http://www.w3.org/2000/svg" viewBox="0 0 60 60"><defs><style>.cls-1{fill:#231f20;}.cls-2{fill:none;}</style></defs><title>מחנה.תוכן</title><g id="Layer_2" data-name="Layer 2"><g id="for_SVG" data-name="for SVG"><path class="cls-1" d="M56.51,35.8v2.83h-53V35.8Zm-33-18.1A21.48,21.48,0,0,0,28.17,25a18.49,18.49,0,0,1-4.53,2.54l1,2.64a21,21,0,0,0,5.43-3.09,21.18,21.18,0,0,0,5.43,3.09l1-2.64a18.32,18.32,0,0,1-4.67-2.66,21.47,21.47,0,0,0,4.56-7.2,21.43,21.43,0,0,0,20,13.84V28.71A18.61,18.61,0,0,1,37.85,10.13H35a18.47,18.47,0,0,1-5,12.64,18.47,18.47,0,0,1-5-12.64H22.07A18.61,18.61,0,0,1,3.48,28.71v2.83A21.43,21.43,0,0,0,23.49,17.7Z"/><rect class="cls-2" width="60" height="60"/></g></g></svg>