<svg xmlns="http://www.w3.org/2000/svg" viewBox="0 0 60 60"><defs><style>.cls-1{fill:#231f20;}.cls-2{fill:none;}</style></defs><title>ליצור.לבנות</title><g id="Layer_2" data-name="Layer 2"><g id="for_SVG" data-name="for SVG"><path class="cls-1" d="M46.15,30,39,22.87l4.46-4.46-2-2L37,20.86l-5.59-5.59V0H28.58V15.27L23,20.89,18.47,16.4l-2,2L21,22.9,13.85,30l7,7L16.47,41.4l2,2,4.4-4.4,5.71,5.72V60h2.84V44.73L37.1,39l4.37,4.37,2-2L39.11,37ZM30,17.86,42.14,30,30,42.14,17.86,30Zm0,13.81A1.67,1.67,0,1,1,31.67,30,1.67,1.67,0,0,1,30,31.67Z"/><rect class="cls-2" width="60" height="60"/></g></g></svg>