<svg xmlns="http://www.w3.org/2000/svg" viewBox="0 0 60 60"><defs><style>.cls-1{fill:#231f20;}.cls-2{fill:none;}</style></defs><title>מדבר</title><g id="Layer_2" data-name="Layer 2"><g id="for_SVG" data-name="for SVG"><path class="cls-1" d="M38.27,20a1.67,1.67,0,1,1,1.67,1.67A1.67,1.67,0,0,1,38.27,20Zm-5-1.66A1.67,1.67,0,1,0,35,20,1.67,1.67,0,0,0,33.3,18.3Zm-6.68,0A1.67,1.67,0,1,0,28.29,20,1.67,1.67,0,0,0,26.62,18.3ZM20,21.63A1.67,1.67,0,1,0,18.3,20,1.67,1.67,0,0,0,20,21.63Zm20,3.33a1.67,1.67,0,1,0,1.66,1.66A1.67,1.67,0,0,0,39.94,25ZM33.3,25A1.67,1.67,0,1,0,35,26.62,1.67,1.67,0,0,0,33.3,25Zm-6.68,0a1.67,1.67,0,1,0,1.67,1.66A1.67,1.67,0,0,0,26.62,25ZM20,25a1.67,1.67,0,1,0,1.67,1.66A1.67,1.67,0,0,0,20,25Zm20,6.66a1.67,1.67,0,1,0,1.66,1.67A1.67,1.67,0,0,0,39.94,31.62Zm-6.64,0A1.67,1.67,0,1,0,35,33.29,1.67,1.67,0,0,0,33.3,31.62Zm-6.68,0a1.67,1.67,0,1,0,1.67,1.67A1.67,1.67,0,0,0,26.62,31.62Zm-6.65,0a1.67,1.67,0,1,0,1.67,1.67A1.67,1.67,0,0,0,20,31.62Zm20,6.67A1.67,1.67,0,1,0,41.6,40,1.66,1.66,0,0,0,39.94,38.29Zm-6.64,0A1.67,1.67,0,1,0,35,40,1.66,1.66,0,0,0,33.3,38.29Zm-6.68,0A1.67,1.67,0,1,0,28.29,40,1.66,1.66,0,0,0,26.62,38.29Zm-6.65,0A1.67,1.67,0,1,0,21.64,40,1.66,1.66,0,0,0,20,38.29Z"/><rect class="cls-2" width="60" height="60"/></g></g></svg>