<svg xmlns="http://www.w3.org/2000/svg" viewBox="0 0 60 60"><defs><style>.cls-1{fill:#231f20;}.cls-2{fill:none;}</style></defs><title>אפיגי</title><g id="Layer_2" data-name="Layer 2"><g id="for_SVG" data-name="for SVG"><path class="cls-1" d="M30,31.79a1.67,1.67,0,1,1,1.67-1.67A1.67,1.67,0,0,1,30,31.79ZM46.07,44.12,51,49.06l-2,2-4.92-4.94A21.3,21.3,0,0,1,15.85,46l-4.77,4.75-2-2L13.85,44A21.29,21.29,0,0,1,14,15.87L9.08,11l2-2L16,13.87a21.28,21.28,0,0,1,28.12,0L49,9l2,2-4.92,4.9a21.3,21.3,0,0,1,0,28.22ZM30,48.58A18.58,18.58,0,1,0,11.42,30,18.59,18.59,0,0,0,30,48.58ZM30,40l-9-9-2,2L30,44,41,33l-2-2ZM19,27l2,2,9-9,9,9,2-2L30,16Z"/><rect class="cls-2" width="60" height="60"/></g></g></svg>