<svg xmlns="http://www.w3.org/2000/svg" viewBox="0 0 60 60.14"><defs><style>.cls-1{fill:#231f20;}.cls-2{fill:none;}</style></defs><title>אירוע.פעילות</title><g id="Layer_2" data-name="Layer 2"><g id="for_SVG" data-name="for SVG"><path class="cls-1" d="M55.26,29.87A25.13,25.13,0,1,0,28.66,55l0,5.19,2.84,0,0-5.15A25.16,25.16,0,0,0,55.26,29.87Zm-24,0-2.84,0,.05,5.88a6.11,6.11,0,1,1,2.83.1Zm.07,8.86a9,9,0,1,0-2.84-.06l.07,8.54a17.45,17.45,0,1,1,2.83,0Zm.1,13.4V50a20.22,20.22,0,1,0-2.84,0l0,2.08a22.3,22.3,0,1,1,2.83,0Z"/><rect class="cls-2" width="60" height="60"/></g></g></svg>