<svg xmlns="http://www.w3.org/2000/svg" viewBox="0 0 60 60"><defs><style>.cls-1{fill:#231f20;}.cls-2{fill:none;}</style></defs><title>חופש</title><g id="Layer_2" data-name="Layer 2"><g id="for_SVG" data-name="for SVG"><path class="cls-1" d="M28.33,20A1.67,1.67,0,1,1,30,21.67,1.67,1.67,0,0,1,28.33,20ZM30,25a1.67,1.67,0,1,0,1.67,1.67A1.67,1.67,0,0,0,30,25Zm0,6.66a1.67,1.67,0,1,0,1.67,1.67A1.67,1.67,0,0,0,30,31.66Zm0,6.67A1.67,1.67,0,1,0,31.67,40,1.66,1.66,0,0,0,30,38.33Z"/><rect class="cls-2" width="60" height="60"/></g></g></svg>