<svg xmlns="http://www.w3.org/2000/svg" viewBox="0 0 60 60"><defs><style>.cls-1{fill:#231f20;}.cls-2{fill:none;}</style></defs><title>גייט</title><g id="Layer_2" data-name="Layer 2"><g id="for_SVG" data-name="for SVG"><path class="cls-1" d="M31.67,42.47A1.67,1.67,0,1,1,30,40.81,1.67,1.67,0,0,1,31.67,42.47ZM30,15.86A26.65,26.65,0,0,0,3.38,42.47H6.22a23.78,23.78,0,0,1,47.56,0h2.84A26.65,26.65,0,0,0,30,15.86Zm0,5.2A21.44,21.44,0,0,0,8.58,42.47h2.84a18.58,18.58,0,0,1,37.16,0h2.84A21.44,21.44,0,0,0,30,21.06Zm0,12a9.43,9.43,0,0,0-9.42,9.41h2.84a6.58,6.58,0,0,1,13.16,0h2.84A9.43,9.43,0,0,0,30,33.06Z"/><rect class="cls-2" width="60" height="60"/></g></g></svg>