<svg xmlns="http://www.w3.org/2000/svg" viewBox="0 0 60 60"><defs><style>.cls-1{fill:#231f20;}.cls-2{fill:none;}</style></defs><title>נצנצים</title><g id="Layer_2" data-name="Layer 2"><g id="for_SVG" data-name="for SVG"><polygon class="cls-1" points="46.72 35.17 40.16 35.17 44.86 30.47 42.86 28.46 38.13 33.19 38.13 26.59 35.3 26.59 35.3 33.04 31.11 28.86 31.11 28.86 26.34 24.08 32.79 24.08 32.79 21.25 26.23 21.25 30.94 16.55 28.93 14.54 24.21 19.27 24.21 12.66 21.37 12.66 21.37 19.12 16.97 14.72 14.97 16.72 19.49 21.25 12.79 21.25 12.79 24.08 19.39 24.08 14.79 28.68 16.79 30.69 21.37 26.11 21.37 32.66 24.21 32.66 24.21 25.96 28.89 30.65 28.89 30.65 33.42 35.17 26.71 35.17 26.71 38.01 33.31 38.01 28.71 42.61 30.72 44.61 35.3 40.03 35.3 46.59 38.13 46.59 38.13 39.89 43.03 44.79 45.04 42.78 40.26 38.01 46.72 38.01 46.72 35.17"/><rect class="cls-2" width="60" height="60"/></g></g></svg>