<svg xmlns="http://www.w3.org/2000/svg" viewBox="0 0 60 60"><defs><style>.cls-1{fill:#231f20;}.cls-2{fill:none;}</style></defs><title>הכוונה</title><g id="Layer_2" data-name="Layer 2"><g id="for_SVG" data-name="for SVG"><path class="cls-1" d="M30,8.58A21.42,21.42,0,1,0,51.42,30,21.45,21.45,0,0,0,30,8.58Zm0,40A18.58,18.58,0,1,1,48.58,30,18.59,18.59,0,0,1,30,48.58Zm6.25-20a6.41,6.41,0,0,0-4.83-4.83V15.06H28.58v8.69a6.41,6.41,0,0,0-4.83,4.83H15.06v2.84h8.69a6.41,6.41,0,0,0,4.83,4.83v8.69h2.84V36.25a6.41,6.41,0,0,0,4.83-4.83h8.69V28.58Zm-6.25,5A3.58,3.58,0,1,1,33.58,30,3.58,3.58,0,0,1,30,33.58Z"/><rect class="cls-2" width="60" height="60"/></g></g></svg>