<svg xmlns="http://www.w3.org/2000/svg" viewBox="0 0 60 60"><defs><style>.cls-1{fill:#231f20;}.cls-2{fill:none;}</style></defs><title>מרפאה</title><g id="Layer_2" data-name="Layer 2"><g id="for_SVG" data-name="for SVG"><path class="cls-1" d="M51.17,18H48.33a18.18,18.18,0,0,1-2.91,9.88,21.05,21.05,0,0,0-30.84,0A18.18,18.18,0,0,1,11.67,18H8.83a20.94,20.94,0,0,0,3.88,12.16A21,21,0,0,0,8.83,42.29h2.84a18.18,18.18,0,0,1,2.91-9.88,21.05,21.05,0,0,0,30.84,0,18.18,18.18,0,0,1,2.91,9.88h2.84a21,21,0,0,0-3.88-12.17A20.94,20.94,0,0,0,51.17,18ZM30,36.29a18.26,18.26,0,0,1-13.68-6.17,18.27,18.27,0,0,1,27.36,0A18.26,18.26,0,0,1,30,36.29Zm1.67-6.41A1.67,1.67,0,1,1,30,28.21,1.67,1.67,0,0,1,31.67,29.88Z"/><rect class="cls-2" width="60" height="60"/></g></g></svg>