<svg xmlns="http://www.w3.org/2000/svg" viewBox="0 0 60 60"><defs><style>.cls-1{fill:#231f20;}.cls-2{fill:none;}</style></defs><title>מוביל.ה</title><g id="Layer_2" data-name="Layer 2"><g id="for_SVG" data-name="for SVG"><path class="cls-1" d="M32,30a1.67,1.67,0,1,1-1.66-1.67A1.66,1.66,0,0,1,32,30Zm18-1.29h0v2.82h0A18.61,18.61,0,0,0,31.43,50.14H28.57A18.61,18.61,0,0,0,10,31.55h0V28.72h0A18.61,18.61,0,0,0,28.57,10.13h2.86A18.61,18.61,0,0,0,50,28.71Zm-7.61,1.42A21.54,21.54,0,0,1,30,17.68,21.54,21.54,0,0,1,17.59,30.13,21.54,21.54,0,0,1,30,42.58,21.54,21.54,0,0,1,42.41,30.13Z"/><rect class="cls-2" width="60" height="60"/></g></g></svg>