<svg xmlns="http://www.w3.org/2000/svg" viewBox="0 0 60 60"><defs><style>.cls-1{fill:#231f20;}.cls-2{fill:none;}</style></defs><title>עכשיו.הווה</title><g id="Layer_2" data-name="Layer 2"><g id="for_SVG" data-name="for SVG"><path class="cls-1" d="M32.13,29.87c2.33-2.16,7-7,7-10.83a9.15,9.15,0,0,0-18.3,0c0,3.82,4.69,8.67,7,10.83-2.34,2.17-7,7-7,10.84a9.15,9.15,0,0,0,18.3,0C39.15,36.88,34.46,32,32.13,29.87ZM23.68,19a6.32,6.32,0,0,1,12.64,0c0,2.36-3.57,6.42-6.32,8.94C27.25,25.46,23.68,21.4,23.68,19ZM30,47a6.32,6.32,0,0,1-6.32-6.31c0-2.36,3.57-6.42,6.32-8.94,2.75,2.52,6.32,6.58,6.32,8.94A6.32,6.32,0,0,1,30,47Z"/><rect class="cls-2" width="60" height="60"/></g></g></svg>