<svg xmlns="http://www.w3.org/2000/svg" viewBox="0 0 60 60"><defs><style>.cls-1{fill:#231f20;}.cls-2{fill:none;}</style></defs><title>ישר.קדימה</title><g id="Layer_2" data-name="Layer 2"><g id="for_SVG" data-name="for SVG"><path class="cls-1" d="M36.27,9.61a6.41,6.41,0,0,0-12.79.09,21.4,21.4,0,1,0,12.79-.09ZM29.88,6.5a3.59,3.59,0,1,1-3.59,3.58A3.59,3.59,0,0,1,29.88,6.5ZM30,48.65a18.57,18.57,0,0,1-6.06-36.13,6.46,6.46,0,0,0,4.52,3.82V30.06h2.83V16.34a6.42,6.42,0,0,0,4.54-3.89A18.57,18.57,0,0,1,30,48.65Z"/><rect class="cls-2" width="60" height="60"/></g></g></svg>