<svg xmlns="http://www.w3.org/2000/svg" viewBox="0 0 60 60"><defs><style>.cls-1{fill:#231f20;}.cls-2{fill:none;}</style></defs><title>טמפל</title><g id="Layer_2" data-name="Layer 2"><g id="for_SVG" data-name="for SVG"><path class="cls-1" d="M45.14,14.86a21.41,21.41,0,1,0,0,30.28A21.42,21.42,0,0,0,45.14,14.86ZM30,11.43a18.53,18.53,0,0,1,12.09,4.48l-7.72,7.72L30,16.06l-4.37,7.57-7.72-7.72A18.53,18.53,0,0,1,30,11.43Zm-1.42,22H23.24l3-5.2,2.34,2.35Zm2.84-2.85,2.34-2.35,3,5.2H31.42ZM30,28l-2.29-2.3,2.29-4,2.29,4ZM15.91,17.91l8.25,8.26-5.83,10.1H28.58V48.51a18.55,18.55,0,0,1-12.67-30.6ZM43.14,43.14a18.53,18.53,0,0,1-11.72,5.37V36.27H41.67l-5.83-10.1,8.25-8.26A18.6,18.6,0,0,1,43.14,43.14Z"/><rect class="cls-2" width="60" height="60"/></g></g></svg>