<svg xmlns="http://www.w3.org/2000/svg" viewBox="0 0 60 60"><defs><style>.cls-1{fill:#231f20;}.cls-2{fill:none;}</style></defs><title>לקבל</title><g id="Layer_2" data-name="Layer 2"><g id="for_SVG" data-name="for SVG"><path class="cls-1" d="M31.42,8.88V.12H28.58V8.88a6.44,6.44,0,0,0-5,6.26c0,2.79,4.51,31.9,5,35.21a1.42,1.42,0,0,0,2.8,0c.51-3.31,5-32.42,5-35.21A6.44,6.44,0,0,0,31.42,8.88ZM30,40.78c-1.75-11.57-3.58-24.12-3.58-25.64a3.58,3.58,0,1,1,7.16,0C33.58,16.66,31.75,29.21,30,40.78Z"/><rect class="cls-2" width="60" height="60"/></g></g></svg>