<svg xmlns="http://www.w3.org/2000/svg" viewBox="0 0 60 60.14"><defs><style>.cls-1{fill:#231f20;}.cls-2{fill:none;}</style></defs><title>לחלום</title><g id="Layer_2" data-name="Layer 2"><g id="for_SVG" data-name="for SVG"><path class="cls-1" d="M30,32.67a6.41,6.41,0,0,0-1.42,12.67v14.8h2.84V45.34A6.41,6.41,0,0,0,30,32.67Zm0,10a3.58,3.58,0,1,1,3.58-3.58A3.58,3.58,0,0,1,30,42.67Zm1.42-27.8V.14H28.58V14.87a6.42,6.42,0,1,0,2.84,0ZM30,24.71a3.59,3.59,0,1,1,3.58-3.59A3.58,3.58,0,0,1,30,24.71Zm-11,1a4.42,4.42,0,1,0,4.41,4.42A4.42,4.42,0,0,0,19,25.69Zm0,6a1.59,1.59,0,1,1,1.58-1.58A1.59,1.59,0,0,1,19,31.69Zm22-6a4.42,4.42,0,1,0,4.42,4.42A4.42,4.42,0,0,0,41,25.69Zm0,6a1.59,1.59,0,1,1,1.59-1.58A1.58,1.58,0,0,1,41,31.69Z"/><rect class="cls-2" width="60" height="60"/></g></g></svg>