<svg xmlns="http://www.w3.org/2000/svg" viewBox="0 0 60 60.14"><defs><style>.cls-1{fill:#231f20;}.cls-2{fill:none;}</style></defs><title>לתת</title><g id="Layer_2" data-name="Layer 2"><g id="for_SVG" data-name="for SVG"><path class="cls-1" d="M36.42,45.12c0-2.79-4.51-31.9-5-35.21a1.42,1.42,0,0,0-2.8,0c-.51,3.31-5,32.42-5,35.21a6.43,6.43,0,0,0,5,6.26v8.76h2.84V51.38A6.43,6.43,0,0,0,36.42,45.12ZM30,48.71a3.58,3.58,0,0,1-3.58-3.59c0-1.52,1.83-14.07,3.58-25.64,1.75,11.57,3.58,24.12,3.58,25.64A3.58,3.58,0,0,1,30,48.71Z"/><rect class="cls-2" width="60" height="60"/></g></g></svg>