<svg xmlns="http://www.w3.org/2000/svg" viewBox="0 0 60 60.14"><defs><style>.cls-1{fill:#231f20;}.cls-2{fill:none;}</style></defs><title>לחבק</title><g id="Layer_2" data-name="Layer 2"><g id="for_SVG" data-name="for SVG"><path class="cls-1" d="M44.32,23.55A14.34,14.34,0,0,0,31.42,9.3V.14H28.58V9.3A14.29,14.29,0,0,0,17.23,30,14.29,14.29,0,0,0,28.58,50.7v9.44h2.84V50.7A14.29,14.29,0,0,0,42.77,30,14.27,14.27,0,0,0,44.32,23.55Zm-25.81,0a11.49,11.49,0,1,1,22.38,3.63,14.27,14.27,0,0,0-21.78,0A11.51,11.51,0,0,1,18.51,23.55ZM39.5,30a11.49,11.49,0,0,1-19,0,11.49,11.49,0,0,1,19,0Zm2,6.45a11.49,11.49,0,1,1-22.38-3.63,14.27,14.27,0,0,0,21.78,0A11.51,11.51,0,0,1,41.49,36.45ZM30,28.33A1.67,1.67,0,1,1,28.33,30,1.67,1.67,0,0,1,30,28.33Z"/><rect class="cls-2" width="60" height="60"/></g></g></svg>