<svg xmlns="http://www.w3.org/2000/svg" viewBox="0 0 60.04 60.25"><defs><style>.cls-1{fill:#231f20;}.cls-2{fill:none;}</style></defs><title>לשחרר</title><g id="Layer_2" data-name="Layer 2"><g id="for_SVG" data-name="for SVG"><path class="cls-1" d="M51.36,31.43,60,31.32l0-2.84-8.64.11a21.26,21.26,0,0,0-5.25-12.65l4-4a4.51,4.51,0,0,0,1.69.34,4.42,4.42,0,1,0-4.42-4.42A4.32,4.32,0,0,0,48,10l-3.91,3.91A21.35,21.35,0,0,0,31.66,8.69V0H28.83V8.67A21.42,21.42,0,0,0,8.67,28.59L0,28.48l0,2.84,8.67.11a21.29,21.29,0,0,0,5.26,12.68l-3.52,3.52a4.33,4.33,0,0,0-2-.52,4.42,4.42,0,1,0,4.42,4.42,4.31,4.31,0,0,0-.43-1.86l3.55-3.55a21.27,21.27,0,0,0,12.9,5.26v8.87h2.83V51.36A21.41,21.41,0,0,0,51.36,31.43Zm.47-25.18a1.58,1.58,0,1,1-1.58,1.58A1.58,1.58,0,0,1,51.83,6.25ZM8.39,53.11A1.58,1.58,0,1,1,10,51.53,1.58,1.58,0,0,1,8.39,53.11Zm3-23.08A18.6,18.6,0,0,1,28.83,11.5V48.55A18.6,18.6,0,0,1,11.43,30Zm20.23,18.5v-37a18.57,18.57,0,0,1,0,37ZM10,11.89,4.77,6.66l2-2L12,9.88ZM50.22,48.1l5.22,5.22-2,2L48.21,50.1Z"/><rect class="cls-2" x="0.02" y="0.03" width="60" height="60"/></g></g></svg>