<svg xmlns="http://www.w3.org/2000/svg" viewBox="0 0 60 60.14"><defs><style>.cls-1{fill:#231f20;}.cls-2{fill:none;}</style></defs><title>לאהוב</title><g id="Layer_2" data-name="Layer 2"><g id="for_SVG" data-name="for SVG"><path class="cls-1" d="M42.9,22.9A12.92,12.92,0,0,0,31.42,10.08V.14H28.58v9.94A12.92,12.92,0,0,0,17.1,22.9,12.7,12.7,0,0,0,19.25,30a12.7,12.7,0,0,0-2.15,7.1A12.92,12.92,0,0,0,28.58,49.92V60.14h2.84V49.92A12.92,12.92,0,0,0,42.9,37.1,12.7,12.7,0,0,0,40.75,30,12.7,12.7,0,0,0,42.9,22.9Zm-5,8a9.93,9.93,0,0,1,2.17,6.22,10.06,10.06,0,1,1-20.12,0,9.93,9.93,0,0,1,2.17-6.22L22.8,30l-.69-.88a9.93,9.93,0,0,1-2.17-6.22,10.06,10.06,0,1,1,20.12,0,9.93,9.93,0,0,1-2.17,6.22L37.2,30ZM31.67,30A1.67,1.67,0,1,1,30,28.33,1.67,1.67,0,0,1,31.67,30Z"/><rect class="cls-2" width="60" height="60"/></g></g></svg>