<svg xmlns="http://www.w3.org/2000/svg" viewBox="0 0 60 60.14"><defs><style>.cls-1{fill:#231f20;}.cls-2{fill:none;}</style></defs><title>לחפש</title><g id="Layer_2" data-name="Layer 2"><g id="for_SVG" data-name="for SVG"><path class="cls-1" d="M30,32.67a6.41,6.41,0,0,0-1.42,12.67v14.8h2.84V45.34A6.41,6.41,0,0,0,30,32.67Zm0,10a3.58,3.58,0,1,1,3.58-3.58A3.58,3.58,0,0,1,30,42.67Zm0-15.13a6.41,6.41,0,0,0,1.42-12.67V.14H28.58V14.87A6.41,6.41,0,0,0,30,27.54Zm0-10a3.59,3.59,0,1,1-3.58,3.58A3.58,3.58,0,0,1,30,17.54Z"/><rect class="cls-2" width="60" height="60"/></g></g></svg>