<svg xmlns="http://www.w3.org/2000/svg" viewBox="0 0 60 60"><defs><style>.cls-1{fill:#231f20;}.cls-2{fill:none;}</style></defs><title>מתנדב.ת</title><g id="Layer_2" data-name="Layer 2"><g id="for_SVG" data-name="for SVG"><path class="cls-1" d="M31.43,10.13H28.57A18.61,18.61,0,0,1,10,28.71h0v2.82h0A18.61,18.61,0,0,1,28.57,50.14h2.86A18.61,18.61,0,0,1,50,31.55h0V28.72h0A18.61,18.61,0,0,1,31.43,10.13ZM30,42.58A21.54,21.54,0,0,0,17.59,30.13,21.54,21.54,0,0,0,30,17.68,21.54,21.54,0,0,0,42.41,30.13,21.54,21.54,0,0,0,30,42.58Z"/><rect class="cls-2" width="60" height="60"/></g></g></svg>