<svg xmlns="http://www.w3.org/2000/svg" viewBox="0 0 60 60"><defs><style>.cls-1{fill:#231f20;}.cls-2{fill:none;}</style></defs><title>שירותי.גברים</title><g id="Layer_2" data-name="Layer 2"><g id="for_SVG" data-name="for SVG"><path class="cls-1" d="M30,8.58A21.42,21.42,0,1,0,51.42,30,21.45,21.45,0,0,0,30,8.58Zm0,40A18.58,18.58,0,1,1,48.58,30,18.59,18.59,0,0,1,30,48.58ZM21,30.75l-2-2,11-11,11,11-2,2-9-9Zm21.48,1.4V35c-.22.08-.63.86-.83,1.24-.57,1.1-1.44,2.76-3.34,2.76S35.57,37.33,35,36.23c-.19-.38-.6-1.16-.81-1.24-.24.08-.65.86-.85,1.24C32.76,37.33,31.89,39,30,39s-2.77-1.66-3.34-2.76c-.21-.41-.6-1.16-.81-1.24-.24.08-.63.83-.84,1.24-.58,1.1-1.44,2.76-3.34,2.76s-2.77-1.66-3.34-2.76c-.22-.41-.61-1.16-.82-1.24V32.15c1.9,0,2.77,1.67,3.34,2.77.21.4.6,1.15.81,1.23.24-.08.63-.83.84-1.23.58-1.1,1.44-2.77,3.34-2.77s2.77,1.67,3.35,2.77c.21.4.6,1.15.81,1.23s.63-.83.84-1.23c.57-1.1,1.44-2.77,3.34-2.77s2.77,1.67,3.35,2.76c.19.38.6,1.17.81,1.24s.65-.86.85-1.23C39.74,33.82,40.61,32.15,42.51,32.15Z"/><rect class="cls-2" width="60" height="60"/></g></g></svg>