<svg xmlns="http://www.w3.org/2000/svg" viewBox="0 0 60 60"><defs><style>.cls-1{fill:#231f20;}.cls-2{fill:none;}</style></defs><title>מים</title><g id="Layer_2" data-name="Layer 2"><g id="for_SVG" data-name="for SVG"><path class="cls-1" d="M44,25.75a5.61,5.61,0,0,1-3.62-1.26,3,3,0,0,0-4,0,5.69,5.69,0,0,1-3.62,1.26,5.62,5.62,0,0,1-3.63-1.26,3,3,0,0,0-3.95,0,5.84,5.84,0,0,1-7.25,0,2.87,2.87,0,0,0-2-.74V20.92a5.59,5.59,0,0,1,3.62,1.26,2.89,2.89,0,0,0,2,.74,2.86,2.86,0,0,0,2-.74,5.84,5.84,0,0,1,7.25,0,3,3,0,0,0,4,0,5.69,5.69,0,0,1,3.62-1.26A5.62,5.62,0,0,1,42,22.18a2.83,2.83,0,0,0,2,.74Zm0,3.83a2.82,2.82,0,0,1-2-.73,5.56,5.56,0,0,0-3.63-1.27,5.63,5.63,0,0,0-3.62,1.27,3,3,0,0,1-4,0,5.81,5.81,0,0,0-7.25,0,2.85,2.85,0,0,1-2,.73,2.89,2.89,0,0,1-2-.73A5.53,5.53,0,0,0,16,27.58v2.84a2.87,2.87,0,0,1,2,.73,5.81,5.81,0,0,0,7.25,0,3,3,0,0,1,3.95,0,5.56,5.56,0,0,0,3.63,1.27,5.63,5.63,0,0,0,3.62-1.27,3,3,0,0,1,4,0A5.56,5.56,0,0,0,44,32.42Zm0,6.67a2.83,2.83,0,0,1-2-.74,5.62,5.62,0,0,0-3.63-1.26,5.69,5.69,0,0,0-3.62,1.26,3,3,0,0,1-4,0,5.84,5.84,0,0,0-7.25,0,2.86,2.86,0,0,1-2,.74,2.89,2.89,0,0,1-2-.74A5.59,5.59,0,0,0,16,34.25v2.83a2.87,2.87,0,0,1,2,.74,5.84,5.84,0,0,0,7.25,0,3,3,0,0,1,3.95,0,5.62,5.62,0,0,0,3.63,1.26,5.69,5.69,0,0,0,3.62-1.26,3,3,0,0,1,4,0A5.61,5.61,0,0,0,44,39.08Z"/><rect class="cls-2" width="60" height="60"/></g></g></svg>