<svg xmlns="http://www.w3.org/2000/svg" viewBox="0 0 60 60"><defs><style>.cls-1{fill:#231f20;}.cls-2{fill:none;}</style></defs><title>מיצב</title><g id="Layer_2" data-name="Layer 2"><g id="for_SVG" data-name="for SVG"><path class="cls-1" d="M46.15,30,39,22.87l4.46-4.46-2-2L37,20.86l-7-7-7,7L18.47,16.4l-2,2L21,22.9,13.85,30l7,7L16.47,41.4l2,2,4.4-4.4L30,46.15,37.1,39l4.37,4.37,2-2L39.11,37Zm-4,0-5,5L32,29.9l5-5ZM30,17.86l5,5-5,5-5-5ZM17.86,30,23,24.9l5,5L22.87,35ZM30,42.14,24.87,37l5.1-5.1L35.1,37Z"/><rect class="cls-2" width="60" height="60"/></g></g></svg>