<svg xmlns="http://www.w3.org/2000/svg" viewBox="0 0 60 60"><defs><style>.cls-1{fill:#231f20;}.cls-2{fill:none;}</style></defs><title>מקלחת</title><g id="Layer_2" data-name="Layer 2"><g id="for_SVG" data-name="for SVG"><path class="cls-1" d="M38.9,17.61H44V14.77H16v2.84h6.51a4.22,4.22,0,0,1-.33.49,5.84,5.84,0,0,0,0,7.25,2.89,2.89,0,0,1,.74,2,2.86,2.86,0,0,1-.74,2,5.83,5.83,0,0,0,0,7.24,3,3,0,0,1,0,4,5.61,5.61,0,0,0-1.26,3.62h2.83a2.85,2.85,0,0,1,.74-2,5.83,5.83,0,0,0,0-7.24,3,3,0,0,1,0-3.95,5.84,5.84,0,0,0,0-7.25,3,3,0,0,1,0-4,6.37,6.37,0,0,0,1.08-2.14h3.61c-.1.16-.21.32-.33.49a5.81,5.81,0,0,0,0,7.25,2.93,2.93,0,0,1,.73,2,2.9,2.9,0,0,1-.73,2,5.79,5.79,0,0,0,0,7.24,3,3,0,0,1,0,4,5.56,5.56,0,0,0-1.27,3.62h2.84a2.84,2.84,0,0,1,.73-2,5.79,5.79,0,0,0,0-7.24,3,3,0,0,1,0-3.95,5.81,5.81,0,0,0,0-7.25,3.05,3.05,0,0,1,0-4,6,6,0,0,0,1.08-2.14h3.62c-.1.16-.21.32-.34.49a5.84,5.84,0,0,0,0,7.25,2.89,2.89,0,0,1,.74,2,2.86,2.86,0,0,1-.74,2,5.83,5.83,0,0,0,0,7.24,3,3,0,0,1,0,4,5.61,5.61,0,0,0-1.26,3.62h2.83a2.85,2.85,0,0,1,.74-2,5.83,5.83,0,0,0,0-7.24,3,3,0,0,1,0-3.95,5.84,5.84,0,0,0,0-7.25,3,3,0,0,1,0-4A6,6,0,0,0,38.9,17.61Z"/><rect class="cls-2" width="60" height="60"/></g></g></svg>