<svg xmlns="http://www.w3.org/2000/svg" viewBox="0 0 60 60"><defs><style>.cls-1{fill:#231f20;}.cls-2{fill:none;}</style></defs><title>סקס</title><g id="Layer_2" data-name="Layer 2"><g id="for_SVG" data-name="for SVG"><path class="cls-1" d="M45.14,14.86a21.41,21.41,0,1,0,0,30.28A21.41,21.41,0,0,0,45.14,14.86Zm-2,28.28a18.58,18.58,0,1,1,0-26.28A18.61,18.61,0,0,1,43.14,43.14ZM39,24l-4,4-5-5-5,5-4-4-2,2,4,4-4,4,2,2,4-4,5,5,5-5,4,4,2-2-4-4,4-4Zm-9,9-3-3,3-3,3,3Z"/><rect class="cls-2" width="60" height="60"/></g></g></svg>