<svg xmlns="http://www.w3.org/2000/svg" viewBox="0 0 60 60"><defs><style>.cls-1{fill:#231f20;}.cls-2{fill:none;}</style></defs><title>עבר</title><g id="Layer_2" data-name="Layer 2"><g id="for_SVG" data-name="for SVG"><path class="cls-1" d="M32.12,30.12c2.34-2.16,7-7,7-10.83a9.15,9.15,0,0,0-18.3,0c0,3.83,4.69,8.67,7,10.83-2.33,2.17-7,7-7,10.84a9.15,9.15,0,0,0,18.3,0C39.15,37.13,34.46,32.29,32.12,30.12ZM23.68,19.29a6.32,6.32,0,0,1,12.64,0c0,2.36-3.57,6.42-6.32,8.94C27.25,25.71,23.68,21.65,23.68,19.29Zm6.32,28A6.32,6.32,0,0,1,23.68,41c0-2.36,3.57-6.42,6.32-8.94,2.75,2.52,6.32,6.58,6.32,8.94A6.32,6.32,0,0,1,30,47.27Zm0-8.53a1.67,1.67,0,1,1-1.67,1.67A1.67,1.67,0,0,1,30,38.74Z"/><rect class="cls-2" width="60" height="60"/></g></g></svg>