<svg xmlns="http://www.w3.org/2000/svg" viewBox="0 0 60 60"><defs><style>.cls-1{fill:#231f20;}.cls-2{fill:none;}</style></defs><title>עצב</title><g id="Layer_2" data-name="Layer 2"><g id="for_SVG" data-name="for SVG"><path class="cls-1" d="M45.14,14.86a21.41,21.41,0,1,0,0,30.28A21.42,21.42,0,0,0,45.14,14.86Zm-1,27.23L41,39l-2,2,3.09,3.09a18.51,18.51,0,0,1-10.67,4.42V44.14H28.58v4.37a18.51,18.51,0,0,1-10.67-4.42L21,41l-2-2-3.09,3.09a18.51,18.51,0,0,1-4.42-10.67h4.37V28.58H11.49a18.51,18.51,0,0,1,4.42-10.67L19,21l2-2-3.09-3.09a18.51,18.51,0,0,1,10.67-4.42v4.37h2.84V11.49a18.51,18.51,0,0,1,10.67,4.42L39,19l2,2,3.09-3.09a18.51,18.51,0,0,1,4.42,10.67H44.14v2.84h4.37A18.51,18.51,0,0,1,44.09,42.09ZM31.67,30A1.67,1.67,0,1,1,30,28.33,1.67,1.67,0,0,1,31.67,30Z"/><rect class="cls-2" width="60" height="60"/></g></g></svg>