<svg xmlns="http://www.w3.org/2000/svg" viewBox="0 0 60 60"><defs><style>.cls-1{fill:#231f20;}.cls-2{fill:none;}</style></defs><title>עתיד</title><g id="Layer_2" data-name="Layer 2"><g id="for_SVG" data-name="for SVG"><path class="cls-1" d="M29.75,21.26a1.67,1.67,0,1,1,1.67-1.67A1.67,1.67,0,0,1,29.75,21.26ZM38.9,40.83a9.15,9.15,0,0,1-18.3,0c0-3.82,4.69-8.66,7-10.83-2.33-2.17-7-7-7-10.83a9.15,9.15,0,1,1,18.3,0c0,3.82-4.69,8.66-7,10.83C34.21,32.17,38.9,37,38.9,40.83ZM29.75,28.11c2.75-2.53,6.32-6.58,6.32-8.94a6.32,6.32,0,1,0-12.64,0C23.43,21.53,27,25.58,29.75,28.11Zm6.32,12.72c0-2.36-3.57-6.41-6.32-8.94-2.75,2.53-6.32,6.58-6.32,8.94a6.32,6.32,0,0,0,12.64,0Z"/><rect class="cls-2" width="60" height="60"/></g></g></svg>