<svg xmlns="http://www.w3.org/2000/svg" viewBox="0 0 60 60"><defs><style>.cls-1{fill:#231f20;}.cls-2{fill:none;}</style></defs><title>פלאייה</title><g id="Layer_2" data-name="Layer 2"><g id="for_SVG" data-name="for SVG"><path class="cls-1" d="M14.83,29.85h2.84a12.33,12.33,0,1,0,24.66,0h2.84a15.17,15.17,0,0,1-30.34,0Zm32.52,0a17.35,17.35,0,1,1-34.7,0H9.81a20.19,20.19,0,0,0,40.38,0ZM30,31.92A1.92,1.92,0,1,0,28.08,30,1.92,1.92,0,0,0,30,31.92Zm5-6.25A1.67,1.67,0,1,0,33.33,24,1.67,1.67,0,0,0,35,25.67Z"/><rect class="cls-2" width="60" height="60"/></g></g></svg>