<svg xmlns="http://www.w3.org/2000/svg" viewBox="0 0 60 60"><defs><style>.cls-1{fill:#231f20;}.cls-2{fill:none;}</style></defs><title>רעש</title><g id="Layer_2" data-name="Layer 2"><g id="for_SVG" data-name="for SVG"><path class="cls-1" d="M30,8.58A21.42,21.42,0,1,0,51.42,30,21.45,21.45,0,0,0,30,8.58Zm0,40A18.58,18.58,0,1,1,48.58,30,18.59,18.59,0,0,1,30,48.58Zm0-45.2A26.62,26.62,0,1,0,56.62,30,26.65,26.65,0,0,0,30,3.38Zm0,50.4A23.78,23.78,0,1,1,53.78,30,23.81,23.81,0,0,1,30,53.78Zm0-40.11A16.33,16.33,0,1,0,46.33,30,16.35,16.35,0,0,0,30,13.67Zm0,29.82A13.49,13.49,0,1,1,43.49,30,13.5,13.5,0,0,1,30,43.49Zm0-24.66A11.17,11.17,0,1,0,41.17,30,11.18,11.18,0,0,0,30,18.83Zm0,19.5A8.33,8.33,0,1,1,38.33,30,8.34,8.34,0,0,1,30,38.33Zm0-14.54A6.21,6.21,0,1,0,36.21,30,6.22,6.22,0,0,0,30,23.79Zm0,9.58A3.37,3.37,0,1,1,33.37,30,3.37,3.37,0,0,1,30,33.37Z"/><rect class="cls-2" width="60" height="60"/></g></g></svg>