<svg xmlns="http://www.w3.org/2000/svg" viewBox="0 0 60 60"><defs><style>.cls-1{fill:#231f20;}.cls-2{fill:none;}</style></defs><title>שירותים</title><g id="Layer_2" data-name="Layer 2"><g id="for_SVG" data-name="for SVG"><path class="cls-1" d="M30,8.83A21.42,21.42,0,1,0,51.42,30.25,21.45,21.45,0,0,0,30,8.83Zm0,40A18.58,18.58,0,1,1,48.58,30.25,18.59,18.59,0,0,1,30,48.83Zm6.93-13.25,2,2L30,46.53l-8.94-8.94,2-2L30,42.52ZM23.07,25l-2-2L30,14,38.94,23l-2,2L30,18.05ZM42.5,31.29v2.83c-1.9,0-2.77-1.66-3.34-2.76-.21-.4-.6-1.15-.81-1.23-.24.08-.63.83-.84,1.23-.58,1.1-1.44,2.76-3.34,2.76s-2.77-1.66-3.35-2.76c-.21-.4-.6-1.15-.81-1.23-.24.07-.63.83-.84,1.23-.57,1.1-1.44,2.76-3.34,2.76s-2.77-1.66-3.35-2.76c-.19-.37-.6-1.16-.81-1.23s-.65.86-.85,1.23c-.57,1.1-1.44,2.76-3.34,2.76V31.29c.22-.08.63-.86.83-1.24.57-1.1,1.44-2.76,3.34-2.76S24.43,29,25,30.05c.19.38.6,1.16.81,1.24.24-.08.65-.86.85-1.24.57-1.1,1.44-2.76,3.34-2.76s2.77,1.66,3.34,2.76c.21.41.6,1.16.81,1.24.24-.08.63-.83.84-1.24.58-1.1,1.44-2.76,3.34-2.76s2.77,1.66,3.34,2.76C41.9,30.46,42.29,31.21,42.5,31.29Z"/><rect class="cls-2" width="60" height="60"/></g></g></svg>