<svg xmlns="http://www.w3.org/2000/svg" viewBox="0 0 60 60"><defs><style>.cls-1{fill:#231f20;}.cls-2{fill:none;}</style></defs><title>שירותי.נשים</title><g id="Layer_2" data-name="Layer 2"><g id="for_SVG" data-name="for SVG"><path class="cls-1" d="M30,8.58A21.42,21.42,0,1,0,51.42,30,21.45,21.45,0,0,0,30,8.58Zm0,40A18.58,18.58,0,1,1,48.58,30,18.59,18.59,0,0,1,30,48.58Zm9-18.39,2,2-11,11-11-11,2-2,9,9ZM42.5,26v2.83c-1.9,0-2.77-1.66-3.34-2.76-.21-.41-.6-1.16-.81-1.24-.24.08-.63.83-.84,1.24-.58,1.1-1.44,2.76-3.34,2.76s-2.77-1.66-3.35-2.76c-.21-.41-.6-1.16-.81-1.24-.24.08-.63.83-.84,1.24-.57,1.1-1.44,2.76-3.34,2.76s-2.77-1.66-3.35-2.76c-.19-.38-.6-1.16-.81-1.24-.24.08-.65.86-.85,1.24-.57,1.1-1.44,2.76-3.34,2.76V26c.22-.08.63-.86.83-1.24.57-1.1,1.44-2.76,3.34-2.76s2.77,1.66,3.35,2.76c.19.38.6,1.16.81,1.24.24-.08.65-.87.85-1.24C27.24,23.68,28.11,22,30,22s2.77,1.66,3.34,2.76c.21.4.6,1.16.81,1.24.24-.08.63-.84.84-1.24.58-1.1,1.44-2.76,3.34-2.76s2.77,1.66,3.34,2.76C41.9,25.18,42.29,25.94,42.5,26Z"/><rect class="cls-2" width="60" height="60"/></g></g></svg>