<svg xmlns="http://www.w3.org/2000/svg" viewBox="0 0 60 60.77"><defs><style>.cls-1{fill:#231f20;}.cls-2{fill:none;}</style></defs><title>שינוי.התפתחות</title><g id="Layer_2" data-name="Layer 2"><g id="for_SVG" data-name="for SVG"><path class="cls-1" d="M58.34,33.79,31.19,23.9l0-13.78H28.34l0,13.76-27.2,9.9,1,2.66L26,27.76,11.43,48.58l2.32,1.62,11-15.64c.71,5.94,3.32,22.82,3.66,25a1.41,1.41,0,0,0,1.4,1.2,1.43,1.43,0,0,0,1.4-1.2c.33-2.18,2.93-19,3.65-25L45.75,50.2l2.32-1.62L33.49,27.76l23.88,8.69ZM29.73,24.92h0l0,0Zm0,25c-1.23-8.14-2.4-16.27-2.4-17.32a2.4,2.4,0,1,1,4.79,0C32.16,33.7,31,41.83,29.77,50Zm0-22.55H29.7l.05-.07,0,.06Z"/><rect class="cls-2" width="60" height="60"/></g></g></svg>