<svg xmlns="http://www.w3.org/2000/svg" viewBox="0 0 60 60"><defs><style>.cls-1{fill:#231f20;}.cls-2{fill:none;}</style></defs><title>שמחה</title><g id="Layer_2" data-name="Layer 2"><g id="for_SVG" data-name="for SVG"><path class="cls-1" d="M31.67,30A1.67,1.67,0,1,1,30,28.33,1.67,1.67,0,0,1,31.67,30Zm19.67,1.42A21.3,21.3,0,0,1,46.1,44.09l4.27,4.27-2,2L44.09,46.1a21.3,21.3,0,0,1-12.67,5.24v6H28.58v-6A21.3,21.3,0,0,1,15.91,46.1l-4.27,4.27-2-2,4.27-4.27A21.3,21.3,0,0,1,8.66,31.42H2.61V28.58H8.66A21.3,21.3,0,0,1,13.9,15.91L9.63,11.63l2-2,4.27,4.27A21.3,21.3,0,0,1,28.58,8.66V2.61h2.84V8.66A21.3,21.3,0,0,1,44.09,13.9l4.27-4.27,2,2L46.1,15.91a21.3,21.3,0,0,1,5.24,12.67h6v2.84Zm-8.2-14.56a18.58,18.58,0,1,0,0,26.28A18.53,18.53,0,0,0,43.14,16.86Z"/><rect class="cls-2" width="60" height="60"/></g></g></svg>