<svg xmlns="http://www.w3.org/2000/svg" viewBox="0 0 60 60"><defs><style>.cls-1{fill:#231f20;}.cls-2{fill:none;}</style></defs><title>שמאלה</title><g id="Layer_2" data-name="Layer 2"><g id="for_SVG" data-name="for SVG"><path class="cls-1" d="M29.74,8.71A21.45,21.45,0,0,0,9.22,24a6.41,6.41,0,0,0,.1,12.47A21.41,21.41,0,1,0,29.74,8.71ZM7.18,30.25a3.58,3.58,0,1,1,3.58,3.58A3.58,3.58,0,0,1,7.18,30.25ZM29.74,48.71A18.59,18.59,0,0,1,12.3,36.47,6.41,6.41,0,0,0,17,31.67H29.74V28.83H17A6.43,6.43,0,0,0,12.22,24a18.57,18.57,0,1,1,17.52,24.7Z"/><rect class="cls-2" width="60" height="60"/></g></g></svg>