<svg xmlns="http://www.w3.org/2000/svg" viewBox="0 0 60 60"><defs><style>.cls-1{fill:#231f20;}.cls-2{fill:none;}</style></defs><title>תודה</title><g id="Layer_2" data-name="Layer 2"><g id="for_SVG" data-name="for SVG"><path class="cls-1" d="M45.14,14.86A21.41,21.41,0,0,0,14.86,45.14h0A21.41,21.41,0,0,0,45.14,14.86Zm-2,28.28a18.6,18.6,0,0,1-26.28,0h0a18.58,18.58,0,1,1,26.28,0Zm-9.7-14.56H40v2.84H33.55l4.77,4.77-2,2-4.9-4.9V40H28.58V33.44L24,38l-2-2,4.6-4.6H20V28.58h6.7l-4.52-4.52,2-2,4.4,4.4V20h2.84v6.6l4.72-4.73,2,2Z"/><rect class="cls-2" width="60" height="60"/></g></g></svg>